<svg width="1440" height="684" viewBox="0 0 1440 684" fill="none" xmlns="http://www.w3.org/2000/svg">
<g clip-path="url(#clip0_10376_22944)">
<rect width="1440" height="684" fill="black"/>
<g clip-path="url(#clip1_10376_22944)">
<g opacity="0.09">
<g filter="url(#filter0_f_10376_22944)">
<ellipse cx="720.183" cy="811.924" rx="598.144" ry="586.673" fill="url(#paint0_radial_10376_22944)"/>
</g>
<g filter="url(#filter1_f_10376_22944)">
<ellipse cx="844.342" cy="811.924" rx="275.515" ry="404.015" fill="#FA12E3"/>
</g>
<g filter="url(#filter2_f_10376_22944)">
<ellipse cx="534.283" cy="837.997" rx="222.539" ry="326.331" fill="#FF1E00" fill-opacity="0.7"/>
</g>
</g>
<g filter="url(#filter3_f_10376_22944)" style="mix-blend-mode:plus-lighter">
<path d="M743.349 571.07L368.97 683.537H1123.71L743.349 571.07Z" fill="url(#paint1_linear_10376_22944)" fill-opacity="0.3"/>
</g>
<g filter="url(#filter4_f_10376_22944)" style="mix-blend-mode:plus-lighter">
<path d="M743.607 637.063L401.502 683.537H1091.18L743.607 637.063Z" fill="#370A49"/>
</g>
<g filter="url(#filter5_f_10376_22944)">
<path d="M736.736 680.749L232.596 705.845H1248.93L736.736 680.749Z" fill="#C99AFF"/>
</g>
<g filter="url(#filter6_f_10376_22944)">
<ellipse cx="422.914" cy="205.372" rx="422.914" ry="205.372" transform="matrix(1 0 0 -1 317.848 847.126)" fill="black" fill-opacity="0.6"/>
</g>
<g opacity="0.4" clip-path="url(#clip2_10376_22944)">
<g opacity="0.240825">
<path d="M548.771 436.644C548.771 436.005 549.288 435.488 549.927 435.488C550.565 435.488 551.083 436.005 551.083 436.644C551.083 437.282 550.565 437.8 549.927 437.8C549.288 437.8 548.771 437.282 548.771 436.644Z" fill="white" fill-opacity="0.4"/>
</g>
<g opacity="0.951555">
<path d="M1061.68 564.421C1061.68 563.559 1062.37 562.861 1063.24 562.861C1064.1 562.861 1064.79 563.559 1064.79 564.421C1064.79 565.282 1064.1 565.98 1063.24 565.98C1062.37 565.98 1061.68 565.282 1061.68 564.421Z" fill="white" fill-opacity="0.4"/>
</g>
<g opacity="0.391017">
<path d="M1206.9 659.227C1206.9 658.86 1207.2 658.563 1207.56 658.563C1207.93 658.563 1208.23 658.86 1208.23 659.227C1208.23 659.593 1207.93 659.89 1207.56 659.89C1207.2 659.89 1206.9 659.593 1206.9 659.227Z" fill="white" fill-opacity="0.4"/>
</g>
<g opacity="0.840293">
<path d="M1017.29 378.352C1017.29 377.448 1018.02 376.715 1018.93 376.715C1019.83 376.715 1020.56 377.448 1020.56 378.352C1020.56 379.256 1019.83 379.989 1018.93 379.989C1018.02 379.989 1017.29 379.256 1017.29 378.352Z" fill="white" fill-opacity="0.4"/>
</g>
<g opacity="0.544772">
<path d="M329.579 274.683C329.579 274.32 329.873 274.026 330.235 274.026C330.598 274.026 330.892 274.32 330.892 274.683C330.892 275.045 330.598 275.339 330.235 275.339C329.873 275.339 329.579 275.045 329.579 274.683Z" fill="white" fill-opacity="0.4"/>
</g>
<g opacity="0.665577">
<path d="M853.033 368.232C853.033 367.791 853.391 367.433 853.832 367.433C854.274 367.433 854.632 367.791 854.632 368.232C854.632 368.674 854.274 369.032 853.832 369.032C853.391 369.032 853.033 368.674 853.033 368.232Z" fill="white" fill-opacity="0.4"/>
</g>
<g opacity="0.270713">
<path d="M257.297 506.466C257.297 506.137 257.564 505.87 257.893 505.87C258.222 505.87 258.489 506.137 258.489 506.466C258.489 506.795 258.222 507.062 257.893 507.062C257.564 507.062 257.297 506.795 257.297 506.466Z" fill="white" fill-opacity="0.4"/>
</g>
<g opacity="0.858105">
<path d="M39.2642 215.062C39.2642 214.224 39.9437 213.544 40.782 213.544C41.6203 213.544 42.2998 214.224 42.2998 215.062C42.2998 215.901 41.6203 216.58 40.782 216.58C39.9437 216.58 39.2642 215.901 39.2642 215.062Z" fill="white" fill-opacity="0.4"/>
</g>
<g opacity="0.554463">
<path d="M1224.63 277.42C1224.63 276.585 1225.31 275.908 1226.14 275.908C1226.98 275.908 1227.66 276.585 1227.66 277.42C1227.66 278.256 1226.98 278.933 1226.14 278.933C1225.31 278.933 1224.63 278.256 1224.63 277.42Z" fill="white" fill-opacity="0.4"/>
</g>
<g opacity="0.608775">
<path d="M771.487 185.587C771.487 185.213 771.791 184.909 772.165 184.909C772.54 184.909 772.844 185.213 772.844 185.587C772.844 185.962 772.54 186.266 772.165 186.266C771.791 186.266 771.487 185.962 771.487 185.587Z" fill="white" fill-opacity="0.4"/>
</g>
<g opacity="0.390968">
<path d="M827.71 472.349C827.71 471.988 828.003 471.696 828.364 471.696C828.725 471.696 829.018 471.988 829.018 472.349C829.018 472.71 828.725 473.003 828.364 473.003C828.003 473.003 827.71 472.71 827.71 472.349Z" fill="white" fill-opacity="0.4"/>
</g>
<g opacity="0.365604">
<path d="M595.106 595.78C595.106 595.063 595.688 594.481 596.406 594.481C597.123 594.481 597.705 595.063 597.705 595.78C597.705 596.498 597.123 597.08 596.406 597.08C595.688 597.08 595.106 596.498 595.106 595.78Z" fill="white" fill-opacity="0.4"/>
</g>
<g opacity="0.62514">
<path d="M348.095 232.513C348.095 231.642 348.802 230.935 349.673 230.935C350.544 230.935 351.25 231.642 351.25 232.513C351.25 233.384 350.544 234.09 349.673 234.09C348.802 234.09 348.095 233.384 348.095 232.513Z" fill="white" fill-opacity="0.4"/>
</g>
<g opacity="0.884447">
<path d="M291.216 40.4327C291.216 39.5404 291.939 38.817 292.832 38.817C293.724 38.817 294.447 39.5404 294.447 40.4327C294.447 41.325 293.724 42.0484 292.832 42.0484C291.939 42.0484 291.216 41.325 291.216 40.4327Z" fill="white" fill-opacity="0.4"/>
</g>
<g opacity="0.674399">
<path d="M637.85 526.306C637.85 525.418 638.57 524.698 639.458 524.698C640.346 524.698 641.066 525.418 641.066 526.306C641.066 527.194 640.346 527.914 639.458 527.914C638.57 527.914 637.85 527.194 637.85 526.306Z" fill="white" fill-opacity="0.4"/>
</g>
<g opacity="0.716139">
<path d="M1433.33 41.7485C1433.33 41.2922 1433.7 40.9224 1434.16 40.9224C1434.62 40.9224 1434.99 41.2922 1434.99 41.7485C1434.99 42.2047 1434.62 42.5745 1434.16 42.5745C1433.7 42.5745 1433.33 42.2047 1433.33 41.7485Z" fill="white" fill-opacity="0.4"/>
</g>
<g opacity="0.966738">
<path d="M464.711 537.303C464.711 536.873 465.059 536.525 465.488 536.525C465.917 536.525 466.265 536.873 466.265 537.303C466.265 537.732 465.917 538.08 465.488 538.08C465.059 538.08 464.711 537.732 464.711 537.303Z" fill="white" fill-opacity="0.4"/>
</g>
<g opacity="0.756956">
<path d="M1308.49 83.4821C1308.49 82.572 1309.22 81.8342 1310.13 81.8342C1311.05 81.8342 1311.78 82.572 1311.78 83.4821C1311.78 84.3922 1311.05 85.13 1310.13 85.13C1309.22 85.13 1308.49 84.3922 1308.49 83.4821Z" fill="white" fill-opacity="0.4"/>
</g>
<g opacity="0.37555">
<path d="M359.49 80.516C359.49 80.1542 359.783 79.8608 360.145 79.8608C360.507 79.8608 360.8 80.1542 360.8 80.516C360.8 80.8778 360.507 81.1712 360.145 81.1712C359.783 81.1712 359.49 80.8778 359.49 80.516Z" fill="white" fill-opacity="0.4"/>
</g>
<g opacity="0.39334">
<path d="M929.265 142.427C929.265 141.688 929.864 141.089 930.603 141.089C931.342 141.089 931.942 141.688 931.942 142.427C931.942 143.166 931.342 143.766 930.603 143.766C929.864 143.766 929.265 143.166 929.265 142.427Z" fill="white" fill-opacity="0.4"/>
</g>
<g opacity="0.274921">
<path d="M1113.48 475.746C1113.48 475.091 1114.01 474.56 1114.67 474.56C1115.32 474.56 1115.85 475.091 1115.85 475.746C1115.85 476.4 1115.32 476.931 1114.67 476.931C1114.01 476.931 1113.48 476.4 1113.48 475.746Z" fill="white" fill-opacity="0.4"/>
</g>
<g opacity="0.682307">
<path d="M1322.75 510.85C1322.75 510.463 1323.07 510.149 1323.45 510.149C1323.84 510.149 1324.15 510.463 1324.15 510.85C1324.15 511.238 1323.84 511.551 1323.45 511.551C1323.07 511.551 1322.75 511.238 1322.75 510.85Z" fill="white" fill-opacity="0.4"/>
</g>
<g opacity="0.941339">
<path d="M169.665 405.923C169.665 405.482 170.021 405.125 170.462 405.125C170.902 405.125 171.259 405.482 171.259 405.923C171.259 406.363 170.902 406.72 170.462 406.72C170.021 406.72 169.665 406.363 169.665 405.923Z" fill="white" fill-opacity="0.4"/>
</g>
<g opacity="0.857141">
<path d="M3.02612 86.0307C3.02612 85.1298 3.75647 84.3994 4.6574 84.3994C5.55833 84.3994 6.28867 85.1298 6.28867 86.0307C6.28867 86.9316 5.55833 87.662 4.6574 87.662C3.75647 87.662 3.02612 86.9316 3.02612 86.0307Z" fill="white" fill-opacity="0.4"/>
</g>
<g opacity="0.513745">
<path d="M918.129 618.586C918.129 617.79 918.774 617.145 919.57 617.145C920.365 617.145 921.01 617.79 921.01 618.586C921.01 619.381 920.365 620.026 919.57 620.026C918.774 620.026 918.129 619.381 918.129 618.586Z" fill="white" fill-opacity="0.4"/>
</g>
<g opacity="0.833305">
<path d="M78.0916 289.495C78.0916 289.086 78.4237 288.754 78.8333 288.754C79.243 288.754 79.5751 289.086 79.5751 289.495C79.5751 289.905 79.243 290.237 78.8333 290.237C78.4237 290.237 78.0916 289.905 78.0916 289.495Z" fill="white" fill-opacity="0.4"/>
</g>
<g opacity="0.884902">
<path d="M1106.57 252.707C1106.57 251.871 1107.25 251.193 1108.08 251.193C1108.92 251.193 1109.6 251.871 1109.6 252.707C1109.6 253.544 1108.92 254.222 1108.08 254.222C1107.25 254.222 1106.57 253.544 1106.57 252.707Z" fill="white" fill-opacity="0.4"/>
</g>
<g opacity="0.21342">
<path d="M553.184 181.329C553.184 180.709 553.686 180.207 554.305 180.207C554.925 180.207 555.427 180.709 555.427 181.329C555.427 181.948 554.925 182.45 554.305 182.45C553.686 182.45 553.184 181.948 553.184 181.329Z" fill="white" fill-opacity="0.4"/>
</g>
<g opacity="0.88639">
<path d="M534.728 34.6688C534.728 33.8226 535.413 33.1367 536.26 33.1367C537.106 33.1367 537.792 33.8226 537.792 34.6688C537.792 35.5149 537.106 36.2008 536.26 36.2008C535.413 36.2008 534.728 35.5149 534.728 34.6688Z" fill="white" fill-opacity="0.4"/>
</g>
<g opacity="0.201288">
<path d="M177.71 341.925C177.71 341.315 178.204 340.82 178.815 340.82C179.425 340.82 179.92 341.315 179.92 341.925C179.92 342.535 179.425 343.03 178.815 343.03C178.204 343.03 177.71 342.535 177.71 341.925Z" fill="white" fill-opacity="0.4"/>
</g>
<g opacity="0.202433">
<path d="M286.246 462.632C286.246 462.02 286.741 461.525 287.353 461.525C287.964 461.525 288.46 462.02 288.46 462.632C288.46 463.243 287.964 463.739 287.353 463.739C286.741 463.739 286.246 463.243 286.246 462.632Z" fill="white" fill-opacity="0.4"/>
</g>
<g opacity="0.67519">
<path d="M1374.09 374.696C1374.09 373.796 1374.82 373.065 1375.72 373.065C1376.62 373.065 1377.35 373.796 1377.35 374.696C1377.35 375.597 1376.62 376.327 1375.72 376.327C1374.82 376.327 1374.09 375.597 1374.09 374.696Z" fill="white" fill-opacity="0.4"/>
</g>
<g opacity="0.219621">
<path d="M617.135 180.361C617.135 179.741 617.637 179.238 618.257 179.238C618.878 179.238 619.38 179.741 619.38 180.361C619.38 180.981 618.878 181.484 618.257 181.484C617.637 181.484 617.135 180.981 617.135 180.361Z" fill="white" fill-opacity="0.4"/>
</g>
<g opacity="0.228339">
<path d="M205.641 535.324C205.641 534.693 206.153 534.181 206.784 534.181C207.415 534.181 207.927 534.693 207.927 535.324C207.927 535.955 207.415 536.467 206.784 536.467C206.153 536.467 205.641 535.955 205.641 535.324Z" fill="white" fill-opacity="0.4"/>
</g>
<g opacity="0.308282">
<path d="M1008.94 297.928C1008.94 297.246 1009.49 296.693 1010.17 296.693C1010.85 296.693 1011.41 297.246 1011.41 297.928C1011.41 298.611 1010.85 299.164 1010.17 299.164C1009.49 299.164 1008.94 298.611 1008.94 297.928Z" fill="white" fill-opacity="0.4"/>
</g>
<g opacity="0.380614">
<path d="M1128.04 368.31C1128.04 367.976 1128.31 367.706 1128.64 367.706C1128.98 367.706 1129.25 367.976 1129.25 368.31C1129.25 368.643 1128.98 368.913 1128.64 368.913C1128.31 368.913 1128.04 368.643 1128.04 368.31Z" fill="white" fill-opacity="0.4"/>
</g>
<g opacity="0.594449">
<path d="M655.709 580.285C655.709 579.907 656.016 579.6 656.394 579.6C656.773 579.6 657.08 579.907 657.08 580.285C657.08 580.664 656.773 580.971 656.394 580.971C656.016 580.971 655.709 580.664 655.709 580.285Z" fill="white" fill-opacity="0.4"/>
</g>
<g opacity="0.692235">
<path d="M1109.39 502.79C1109.39 502.013 1110.02 501.383 1110.8 501.383C1111.58 501.383 1112.21 502.013 1112.21 502.79C1112.21 503.568 1111.58 504.198 1110.8 504.198C1110.02 504.198 1109.39 503.568 1109.39 502.79Z" fill="white" fill-opacity="0.4"/>
</g>
<g opacity="0.204277">
<path d="M819.507 516.714C819.507 516.1 820.004 515.603 820.618 515.603C821.231 515.603 821.729 516.1 821.729 516.714C821.729 517.327 821.231 517.825 820.618 517.825C820.004 517.825 819.507 517.327 819.507 516.714Z" fill="white" fill-opacity="0.4"/>
</g>
<g opacity="0.349206">
<path d="M186.66 280.743C186.66 280.033 187.235 279.458 187.945 279.458C188.655 279.458 189.23 280.033 189.23 280.743C189.23 281.453 188.655 282.028 187.945 282.028C187.235 282.028 186.66 281.453 186.66 280.743Z" fill="white" fill-opacity="0.4"/>
</g>
<g opacity="0.399363">
<path d="M1045.61 265.259C1045.61 264.89 1045.91 264.591 1046.28 264.591C1046.65 264.591 1046.95 264.89 1046.95 265.259C1046.95 265.628 1046.65 265.927 1046.28 265.927C1045.91 265.927 1045.61 265.628 1045.61 265.259Z" fill="white" fill-opacity="0.4"/>
</g>
<g opacity="0.688735">
<path d="M390.403 65.5854C390.403 64.8091 391.032 64.1797 391.809 64.1797C392.585 64.1797 393.215 64.8091 393.215 65.5854C393.215 66.3618 392.585 66.9911 391.809 66.9911C391.032 66.9911 390.403 66.3618 390.403 65.5854Z" fill="white" fill-opacity="0.4"/>
</g>
<g opacity="0.222881">
<path d="M1384.82 464.072C1384.82 463.446 1385.33 462.938 1385.96 462.938C1386.58 462.938 1387.09 463.446 1387.09 464.072C1387.09 464.698 1386.58 465.206 1385.96 465.206C1385.33 465.206 1384.82 464.698 1384.82 464.072Z" fill="white" fill-opacity="0.4"/>
</g>
<g opacity="0.490546">
<path d="M650.575 89.0273C650.575 88.2452 651.209 87.6112 651.991 87.6112C652.773 87.6112 653.407 88.2452 653.407 89.0273C653.407 89.8095 652.773 90.4435 651.991 90.4435C651.209 90.4435 650.575 89.8095 650.575 89.0273Z" fill="white" fill-opacity="0.4"/>
</g>
<g opacity="0.510728">
<path d="M106.551 39.6139C106.551 38.8044 107.207 38.1482 108.017 38.1482C108.826 38.1482 109.483 38.8044 109.483 39.6139C109.483 40.4234 108.826 41.0796 108.017 41.0796C107.207 41.0796 106.551 40.4234 106.551 39.6139Z" fill="white" fill-opacity="0.4"/>
</g>
<g opacity="0.712931">
<path d="M1135.7 641.446C1135.7 641.055 1136.02 640.738 1136.41 640.738C1136.8 640.738 1137.12 641.055 1137.12 641.446C1137.12 641.837 1136.8 642.154 1136.41 642.154C1136.02 642.154 1135.7 641.837 1135.7 641.446Z" fill="white" fill-opacity="0.4"/>
</g>
<g opacity="0.50377">
<path d="M995.192 271.631C995.192 270.917 995.771 270.339 996.484 270.339C997.198 270.339 997.776 270.917 997.776 271.631C997.776 272.344 997.198 272.923 996.484 272.923C995.771 272.923 995.192 272.344 995.192 271.631Z" fill="white" fill-opacity="0.4"/>
</g>
<g opacity="0.490562">
<path d="M552.945 32.2182C552.945 31.8219 553.266 31.5007 553.662 31.5007C554.059 31.5007 554.38 31.8219 554.38 32.2182C554.38 32.6144 554.059 32.9356 553.662 32.9356C553.266 32.9356 552.945 32.6144 552.945 32.2182Z" fill="white" fill-opacity="0.4"/>
</g>
<g opacity="0.239774">
<path d="M533.883 140.619C533.883 139.98 534.401 139.462 535.041 139.462C535.68 139.462 536.198 139.98 536.198 140.619C536.198 141.258 535.68 141.776 535.041 141.776C534.401 141.776 533.883 141.258 533.883 140.619Z" fill="white" fill-opacity="0.4"/>
</g>
<g opacity="0.493535">
<path d="M152.164 560.339C152.164 559.545 152.808 558.901 153.602 558.901C154.396 558.901 155.04 559.545 155.04 560.339C155.04 561.133 154.396 561.777 153.602 561.777C152.808 561.777 152.164 561.133 152.164 560.339Z" fill="white" fill-opacity="0.4"/>
</g>
<g opacity="0.613553">
<path d="M1020.56 53.4054C1020.56 52.5409 1021.26 51.8401 1022.13 51.8401C1022.99 51.8401 1023.69 52.5409 1023.69 53.4054C1023.69 54.2699 1022.99 54.9708 1022.13 54.9708C1021.26 54.9708 1020.56 54.2699 1020.56 53.4054Z" fill="white" fill-opacity="0.4"/>
</g>
<g opacity="0.220344">
<path d="M1425.53 232.89C1425.53 232.576 1425.79 232.322 1426.1 232.322C1426.41 232.322 1426.67 232.576 1426.67 232.89C1426.67 233.203 1426.41 233.457 1426.1 233.457C1425.79 233.457 1425.53 233.203 1425.53 232.89Z" fill="white" fill-opacity="0.4"/>
</g>
<g opacity="0.618965">
<path d="M465.1 377.522C465.1 377.094 465.447 376.747 465.875 376.747C466.303 376.747 466.65 377.094 466.65 377.522C466.65 377.95 466.303 378.297 465.875 378.297C465.447 378.297 465.1 377.95 465.1 377.522Z" fill="white" fill-opacity="0.4"/>
</g>
<g opacity="0.284156">
<path d="M1223.15 336.304C1223.15 335.67 1223.66 335.156 1224.29 335.156C1224.93 335.156 1225.44 335.67 1225.44 336.304C1225.44 336.938 1224.93 337.452 1224.29 337.452C1223.66 337.452 1223.15 336.938 1223.15 336.304Z" fill="white" fill-opacity="0.4"/>
</g>
<g opacity="0.356656">
<path d="M1135.77 90.1534C1135.77 89.4411 1136.35 88.8636 1137.06 88.8636C1137.77 88.8636 1138.35 89.4411 1138.35 90.1534C1138.35 90.8657 1137.77 91.4431 1137.06 91.4431C1136.35 91.4431 1135.77 90.8657 1135.77 90.1534Z" fill="white" fill-opacity="0.4"/>
</g>
<g opacity="0.212711">
<path d="M730.085 286C730.085 285.691 730.336 285.44 730.645 285.44C730.955 285.44 731.206 285.691 731.206 286C731.206 286.31 730.955 286.56 730.645 286.56C730.336 286.56 730.085 286.31 730.085 286Z" fill="white" fill-opacity="0.4"/>
</g>
<g opacity="0.453582">
<path d="M1182.68 366.407C1182.68 366.054 1182.97 365.767 1183.32 365.767C1183.67 365.767 1183.96 366.054 1183.96 366.407C1183.96 366.761 1183.67 367.047 1183.32 367.047C1182.97 367.047 1182.68 366.761 1182.68 366.407Z" fill="white" fill-opacity="0.4"/>
</g>
<g opacity="0.453437">
<path d="M1171.86 584.475C1171.86 584.128 1172.14 583.845 1172.49 583.845C1172.84 583.845 1173.12 584.128 1173.12 584.475C1173.12 584.823 1172.84 585.105 1172.49 585.105C1172.14 585.105 1171.86 584.823 1171.86 584.475Z" fill="white" fill-opacity="0.4"/>
</g>
<g opacity="0.623351">
<path d="M792.901 465.165C792.901 464.73 793.253 464.377 793.689 464.377C794.124 464.377 794.476 464.73 794.476 465.165C794.476 465.6 794.124 465.953 793.689 465.953C793.253 465.953 792.901 465.6 792.901 465.165Z" fill="white" fill-opacity="0.4"/>
</g>
<g opacity="0.239152">
<path d="M1226.37 153.039C1226.37 152.4 1226.89 151.883 1227.53 151.883C1228.16 151.883 1228.68 152.4 1228.68 153.039C1228.68 153.678 1228.16 154.196 1227.53 154.196C1226.89 154.196 1226.37 153.678 1226.37 153.039Z" fill="white" fill-opacity="0.4"/>
</g>
<g opacity="0.968932">
<path d="M1329.01 185.26C1329.01 184.394 1329.71 183.693 1330.58 183.693C1331.44 183.693 1332.14 184.394 1332.14 185.26C1332.14 186.126 1331.44 186.828 1330.58 186.828C1329.71 186.828 1329.01 186.126 1329.01 185.26Z" fill="white" fill-opacity="0.4"/>
</g>
<g opacity="0.904297">
<path d="M47.761 355.267C47.761 354.843 48.1052 354.498 48.5297 354.498C48.9543 354.498 49.2984 354.843 49.2984 355.267C49.2984 355.692 48.9543 356.036 48.5297 356.036C48.1052 356.036 47.761 355.692 47.761 355.267Z" fill="white" fill-opacity="0.4"/>
</g>
<g opacity="0.924548">
<path d="M73.0461 250.722C73.0461 249.832 73.7679 249.11 74.6583 249.11C75.5487 249.11 76.2705 249.832 76.2705 250.722C76.2705 251.613 75.5487 252.334 74.6583 252.334C73.7679 252.334 73.0461 251.613 73.0461 250.722Z" fill="white" fill-opacity="0.4"/>
</g>
<g opacity="0.369706">
<path d="M715.526 648.274C715.526 647.912 715.82 647.619 716.182 647.619C716.544 647.619 716.838 647.912 716.838 648.274C716.838 648.637 716.544 648.93 716.182 648.93C715.82 648.93 715.526 648.637 715.526 648.274Z" fill="white" fill-opacity="0.4"/>
</g>
<g opacity="0.635316">
<path d="M1006.62 418.397C1006.62 418.018 1006.93 417.71 1007.31 417.71C1007.69 417.71 1008 418.018 1008 418.397C1008 418.777 1007.69 419.084 1007.31 419.084C1006.93 419.084 1006.62 418.777 1006.62 418.397Z" fill="white" fill-opacity="0.4"/>
</g>
<g opacity="0.20743">
<path d="M1296.92 357.555C1296.92 357.247 1297.17 356.998 1297.48 356.998C1297.79 356.998 1298.03 357.247 1298.03 357.555C1298.03 357.863 1297.79 358.112 1297.48 358.112C1297.17 358.112 1296.92 357.863 1296.92 357.555Z" fill="white" fill-opacity="0.4"/>
</g>
<g opacity="0.395766">
<path d="M804.447 357.325C804.447 356.59 805.043 355.993 805.779 355.993C806.515 355.993 807.112 356.59 807.112 357.325C807.112 358.061 806.515 358.658 805.779 358.658C805.043 358.658 804.447 358.061 804.447 357.325Z" fill="white" fill-opacity="0.4"/>
</g>
<g opacity="0.450412">
<path d="M792.366 427.247C792.366 426.479 792.989 425.856 793.757 425.856C794.526 425.856 795.149 426.479 795.149 427.247C795.149 428.016 794.526 428.639 793.757 428.639C792.989 428.639 792.366 428.016 792.366 427.247Z" fill="white" fill-opacity="0.4"/>
</g>
<g opacity="0.978043">
<path d="M81.9038 279.581C81.9038 278.72 82.6022 278.022 83.4636 278.022C84.3251 278.022 85.0234 278.72 85.0234 279.581C85.0234 280.443 84.3251 281.141 83.4636 281.141C82.6022 281.141 81.9038 280.443 81.9038 279.581Z" fill="white" fill-opacity="0.4"/>
</g>
<g opacity="0.428077">
<path d="M58.8323 206.43C58.8323 205.732 59.398 205.167 60.0959 205.167C60.7938 205.167 61.3595 205.732 61.3595 206.43C61.3595 207.128 60.7938 207.694 60.0959 207.694C59.398 207.694 58.8323 207.128 58.8323 206.43Z" fill="white" fill-opacity="0.4"/>
</g>
<g opacity="0.359207">
<path d="M1125.89 281.848C1125.89 281.132 1126.47 280.552 1127.19 280.552C1127.91 280.552 1128.49 281.132 1128.49 281.848C1128.49 282.564 1127.91 283.144 1127.19 283.144C1126.47 283.144 1125.89 282.564 1125.89 281.848Z" fill="white" fill-opacity="0.4"/>
</g>
<g opacity="0.866749">
<path d="M126.973 420.628C126.973 419.733 127.699 419.007 128.594 419.007C129.49 419.007 130.216 419.733 130.216 420.628C130.216 421.524 129.49 422.25 128.594 422.25C127.699 422.25 126.973 421.524 126.973 420.628Z" fill="white" fill-opacity="0.4"/>
</g>
<g opacity="0.905869">
<path d="M967.52 361.692C967.52 361.248 967.88 360.888 968.324 360.888C968.768 360.888 969.128 361.248 969.128 361.692C969.128 362.136 968.768 362.496 968.324 362.496C967.88 362.496 967.52 362.136 967.52 361.692Z" fill="white" fill-opacity="0.4"/>
</g>
<g opacity="0.82892">
<path d="M1023.94 371.257C1023.94 370.355 1024.67 369.625 1025.57 369.625C1026.47 369.625 1027.2 370.355 1027.2 371.257C1027.2 372.159 1026.47 372.89 1025.57 372.89C1024.67 372.89 1023.94 372.159 1023.94 371.257Z" fill="white" fill-opacity="0.4"/>
</g>
<g opacity="0.906396">
<path d="M998.609 326.695C998.609 325.845 999.298 325.157 1000.15 325.157C1001 325.157 1001.69 325.845 1001.69 326.695C1001.69 327.545 1001 328.234 1000.15 328.234C999.298 328.234 998.609 327.545 998.609 326.695Z" fill="white" fill-opacity="0.4"/>
</g>
<g opacity="0.726408">
<path d="M1419.8 556.693C1419.8 555.781 1420.54 555.041 1421.46 555.041C1422.37 555.041 1423.11 555.781 1423.11 556.693C1423.11 557.606 1422.37 558.346 1421.46 558.346C1420.54 558.346 1419.8 557.606 1419.8 556.693Z" fill="white" fill-opacity="0.4"/>
</g>
<g opacity="0.250335">
<path d="M72.6936 616.029C72.6936 615.712 72.9504 615.455 73.2673 615.455C73.5841 615.455 73.8409 615.712 73.8409 616.029C73.8409 616.345 73.5841 616.602 73.2673 616.602C72.9504 616.602 72.6936 616.345 72.6936 616.029Z" fill="white" fill-opacity="0.4"/>
</g>
<g opacity="0.840258">
<path d="M36.5317 455.582C36.5317 455.172 36.8648 454.839 37.2756 454.839C37.6864 454.839 38.0194 455.172 38.0194 455.582C38.0194 455.993 37.6864 456.326 37.2756 456.326C36.8648 456.326 36.5317 455.993 36.5317 455.582Z" fill="white" fill-opacity="0.4"/>
</g>
<g opacity="0.800295">
<path d="M104.851 672.124C104.851 671.313 105.509 670.655 106.32 670.655C107.132 670.655 107.79 671.313 107.79 672.124C107.79 672.936 107.132 673.594 106.32 673.594C105.509 673.594 104.851 672.936 104.851 672.124Z" fill="white" fill-opacity="0.4"/>
</g>
<g opacity="0.739413">
<path d="M43.3933 365.997C43.3933 365.084 44.1331 364.344 45.0457 364.344C45.9583 364.344 46.6981 365.084 46.6981 365.997C46.6981 366.909 45.9583 367.649 45.0457 367.649C44.1331 367.649 43.3933 366.909 43.3933 365.997Z" fill="white" fill-opacity="0.4"/>
</g>
<g opacity="0.391295">
<path d="M1200.29 101.409C1200.29 100.673 1200.89 100.077 1201.62 100.077C1202.36 100.077 1202.95 100.673 1202.95 101.409C1202.95 102.144 1202.36 102.74 1201.62 102.74C1200.89 102.74 1200.29 102.144 1200.29 101.409Z" fill="white" fill-opacity="0.4"/>
</g>
<g opacity="0.325637">
<path d="M320.233 618.536C320.233 618.204 320.502 617.935 320.834 617.935C321.166 617.935 321.435 618.204 321.435 618.536C321.435 618.868 321.166 619.137 320.834 619.137C320.502 619.137 320.233 618.868 320.233 618.536Z" fill="white" fill-opacity="0.4"/>
</g>
<g opacity="0.338909">
<path d="M965.506 155.034C965.506 154.333 966.075 153.764 966.776 153.764C967.478 153.764 968.046 154.333 968.046 155.034C968.046 155.736 967.478 156.304 966.776 156.304C966.075 156.304 965.506 155.736 965.506 155.034Z" fill="white" fill-opacity="0.4"/>
</g>
<g opacity="0.318425">
<path d="M894.152 244.376C894.152 243.687 894.71 243.129 895.399 243.129C896.087 243.129 896.646 243.687 896.646 244.376C896.646 245.065 896.087 245.623 895.399 245.623C894.71 245.623 894.152 245.065 894.152 244.376Z" fill="white" fill-opacity="0.4"/>
</g>
<g opacity="0.719998">
<path d="M6.22485 353.103C6.22485 352.647 6.59457 352.278 7.05063 352.278C7.50669 352.278 7.8764 352.647 7.8764 353.103C7.8764 353.56 7.50669 353.929 7.05063 353.929C6.59457 353.929 6.22485 353.56 6.22485 353.103Z" fill="white" fill-opacity="0.4"/>
</g>
<g opacity="0.222902">
<path d="M111.681 582.687C111.681 582.374 111.935 582.12 112.249 582.12C112.563 582.12 112.817 582.374 112.817 582.687C112.817 583.001 112.563 583.255 112.249 583.255C111.935 583.255 111.681 583.001 111.681 582.687Z" fill="white" fill-opacity="0.4"/>
</g>
<g opacity="0.547851">
<path d="M830.744 652.593C830.744 651.762 831.418 651.088 832.25 651.088C833.081 651.088 833.755 651.762 833.755 652.593C833.755 653.425 833.081 654.099 832.25 654.099C831.418 654.099 830.744 653.425 830.744 652.593Z" fill="white" fill-opacity="0.4"/>
</g>
<g opacity="0.396774">
<path d="M914 278.471C914 278.103 914.299 277.804 914.667 277.804C915.035 277.804 915.334 278.103 915.334 278.471C915.334 278.84 915.035 279.138 914.667 279.138C914.299 279.138 914 278.84 914 278.471Z" fill="white" fill-opacity="0.4"/>
</g>
<g opacity="0.329308">
<path d="M1341.57 395.512C1341.57 395.168 1341.85 394.889 1342.19 394.889C1342.53 394.889 1342.81 395.168 1342.81 395.512C1342.81 395.855 1342.53 396.134 1342.19 396.134C1341.85 396.134 1341.57 395.855 1341.57 395.512Z" fill="white" fill-opacity="0.4"/>
</g>
<g opacity="0.708066">
<path d="M840.591 370.205C840.591 369.413 841.233 368.772 842.024 368.772C842.816 368.772 843.458 369.413 843.458 370.205C843.458 370.996 842.816 371.638 842.024 371.638C841.233 371.638 840.591 370.996 840.591 370.205Z" fill="white" fill-opacity="0.4"/>
</g>
<g opacity="0.365752">
<path d="M436.87 546.833C436.87 546.124 437.445 545.549 438.154 545.549C438.864 545.549 439.439 546.124 439.439 546.833C439.439 547.542 438.864 548.117 438.154 548.117C437.445 548.117 436.87 547.542 436.87 546.833Z" fill="white" fill-opacity="0.4"/>
</g>
<g opacity="0.231322">
<path d="M552.975 421.402C552.975 421.086 553.231 420.83 553.547 420.83C553.863 420.83 554.12 421.086 554.12 421.402C554.12 421.718 553.863 421.974 553.547 421.974C553.231 421.974 552.975 421.718 552.975 421.402Z" fill="white" fill-opacity="0.4"/>
</g>
<g opacity="0.252262">
<path d="M1283.68 682.625C1283.68 681.984 1284.19 681.465 1284.84 681.465C1285.48 681.465 1286 681.984 1286 682.625C1286 683.266 1285.48 683.785 1284.84 683.785C1284.19 683.785 1283.68 683.266 1283.68 682.625Z" fill="white" fill-opacity="0.4"/>
</g>
</g>
</g>
</g>
<defs>
<filter id="filter0_f_10376_22944" x="-377.961" y="-274.749" width="2196.29" height="2173.35" filterUnits="userSpaceOnUse" color-interpolation-filters="sRGB">
<feFlood flood-opacity="0" result="BackgroundImageFix"/>
<feBlend mode="normal" in="SourceGraphic" in2="BackgroundImageFix" result="shape"/>
<feGaussianBlur stdDeviation="250" result="effect1_foregroundBlur_10376_22944"/>
</filter>
<filter id="filter1_f_10376_22944" x="68.8274" y="-92.0908" width="1551.03" height="1808.03" filterUnits="userSpaceOnUse" color-interpolation-filters="sRGB">
<feFlood flood-opacity="0" result="BackgroundImageFix"/>
<feBlend mode="normal" in="SourceGraphic" in2="BackgroundImageFix" result="shape"/>
<feGaussianBlur stdDeviation="250" result="effect1_foregroundBlur_10376_22944"/>
</filter>
<filter id="filter2_f_10376_22944" x="11.7441" y="211.666" width="1045.08" height="1252.66" filterUnits="userSpaceOnUse" color-interpolation-filters="sRGB">
<feFlood flood-opacity="0" result="BackgroundImageFix"/>
<feBlend mode="normal" in="SourceGraphic" in2="BackgroundImageFix" result="shape"/>
<feGaussianBlur stdDeviation="150" result="effect1_foregroundBlur_10376_22944"/>
</filter>
<filter id="filter3_f_10376_22944" x="68.97" y="271.07" width="1354.74" height="712.467" filterUnits="userSpaceOnUse" color-interpolation-filters="sRGB">
<feFlood flood-opacity="0" result="BackgroundImageFix"/>
<feBlend mode="normal" in="SourceGraphic" in2="BackgroundImageFix" result="shape"/>
<feGaussianBlur stdDeviation="150" result="effect1_foregroundBlur_10376_22944"/>
</filter>
<filter id="filter4_f_10376_22944" x="101.502" y="337.063" width="1289.67" height="646.474" filterUnits="userSpaceOnUse" color-interpolation-filters="sRGB">
<feFlood flood-opacity="0" result="BackgroundImageFix"/>
<feBlend mode="normal" in="SourceGraphic" in2="BackgroundImageFix" result="shape"/>
<feGaussianBlur stdDeviation="150" result="effect1_foregroundBlur_10376_22944"/>
</filter>
<filter id="filter5_f_10376_22944" x="212.596" y="660.749" width="1056.33" height="65.0959" filterUnits="userSpaceOnUse" color-interpolation-filters="sRGB">
<feFlood flood-opacity="0" result="BackgroundImageFix"/>
<feBlend mode="normal" in="SourceGraphic" in2="BackgroundImageFix" result="shape"/>
<feGaussianBlur stdDeviation="10" result="effect1_foregroundBlur_10376_22944"/>
</filter>
<filter id="filter6_f_10376_22944" x="-571.752" y="-453.219" width="2625.03" height="2189.94" filterUnits="userSpaceOnUse" color-interpolation-filters="sRGB">
<feFlood flood-opacity="0" result="BackgroundImageFix"/>
<feBlend mode="normal" in="SourceGraphic" in2="BackgroundImageFix" result="shape"/>
<feGaussianBlur stdDeviation="444.8" result="effect1_foregroundBlur_10376_22944"/>
</filter>
<radialGradient id="paint0_radial_10376_22944" cx="0" cy="0" r="1" gradientTransform="matrix(954.265 -912.565 -572.899 -268.015 412.826 1239.18)" gradientUnits="userSpaceOnUse">
<stop stop-color="#4901AA"/>
<stop offset="1" stop-color="#1D0044"/>
</radialGradient>
<linearGradient id="paint1_linear_10376_22944" x1="746.339" y1="571.07" x2="746.339" y2="683.537" gradientUnits="userSpaceOnUse">
<stop stop-color="#FF6221"/>
<stop offset="1" stop-color="#2A1C4D"/>
</linearGradient>
<clipPath id="clip0_10376_22944">
<rect width="1440" height="684" fill="white"/>
</clipPath>
<clipPath id="clip1_10376_22944">
<rect width="1440" height="900" fill="white" transform="translate(0.182861)"/>
</clipPath>
<clipPath id="clip2_10376_22944">
<rect width="1440" height="939" fill="white" transform="translate(0.182861)"/>
</clipPath>
</defs>
</svg>
